/* XPM */
static char * bg_meter_alarm_xpm[] = {
"60 14 19 1",
" 	c None",
".	c #000000",
"+	c #636300",
"@	c #E0E000",
"#	c #FFFF00",
"$	c #EEEE00",
"%	c #7F7F00",
"&	c #030300",
"*	c #414100",
"=	c #AFAF00",
"-	c #F8F800",
";	c #A1A100",
">	c #333300",
",	c #3E3E00",
"'	c #A4A400",
")	c #FCFC00",
"!	c #FAFA00",
"~	c #DEDE00",
"{	c #ECEC00",
"........+@#######$%&........+@#######$%&........+@#######$%&",
".......*=#######-;>........*=#######-;>........*=#######-;>.",
"......,')######!',........,')######!',........,')######!',..",
".....,'!######!',........,'!######!',........,'!######!',...",
"....,'!######!',........,'!######!',........,'!######!',....",
"...,'!######!',........,'!######!',........,'!######!',.....",
"..,'!######!',........,'!######!',........,'!######!',......",
".*'!######!',........,'!######!',........,'!######!',.......",
"+=)######!',........,'!######!',........,'!######!',........",
"~#######!',........,'!######!',........,'!######!',........&",
"#######!',........,'!######!',........,'!######!',........>%",
"######)',........,'!######)',........,'!######)',........,;{",
"######=*........>;-#######=*........>;-#######=*........>;-#",
"#####@+........&%$#######@+........&%$#######@+........&%{##"};
