/* XPM */
static char * bg_meter_alarm_xpm[] = {
"60 14 82 1",
" 	c None",
".	c #4D0000",
"+	c #500000",
"@	c #520000",
"#	c #540000",
"$	c #560000",
"%	c #580000",
"&	c #590000",
"*	c #5D0000",
"=	c #5E0000",
"-	c #600000",
";	c #620000",
">	c #650000",
",	c #680000",
"'	c #690000",
")	c #6A0000",
"!	c #6B0000",
"~	c #6D0000",
"{	c #6E0000",
"]	c #6F0000",
"^	c #700000",
"/	c #710000",
"(	c #720000",
"_	c #730000",
":	c #750000",
"<	c #760000",
"[	c #5C0000",
"}	c #5A0000",
"|	c #570000",
"1	c #550000",
"2	c #530000",
"3	c #510000",
"4	c #4F0000",
"5	c #320000",
"6	c #350000",
"7	c #380000",
"8	c #3B0000",
"9	c #3D0000",
"0	c #3F0000",
"a	c #400000",
"b	c #440000",
"c	c #450000",
"d	c #480000",
"e	c #4A0000",
"f	c #4B0000",
"g	c #4E0000",
"h	c #5B0000",
"i	c #4C0000",
"j	c #490000",
"k	c #410000",
"l	c #370000",
"m	c #340000",
"n	c #780000",
"o	c #770000",
"p	c #7A0000",
"q	c #7B0000",
"r	c #7D0000",
"s	c #7E0000",
"t	c #7F0000",
"u	c #800000",
"v	c #820000",
"w	c #830000",
"x	c #840000",
"y	c #850000",
"z	c #870000",
"A	c #880000",
"B	c #890000",
"C	c #8B0000",
"D	c #8D0000",
"E	c #8F0000",
"F	c #900000",
"G	c #920000",
"H	c #930000",
"I	c #940000",
"J	c #910000",
"K	c #8E0000",
"L	c #8C0000",
"M	c #8A0000",
"N	c #860000",
"O	c #810000",
"P	c #7C0000",
"Q	c #790000",
".+@#$%&*=-;>>,,')!~{{]^/(__:::<::__(/^^]{~!'',,>>;-=[}%|1234",
".+567890abcdefg+32###1|%%&h[*==*h}&&%|$11#2@34.ijdcka987lm34",
".+5#$%&*=-;>>,,')!~{{]^/(__:::<::__(/^^]{~!'',,>>;-=[}%|1n34",
".+5#$%&*=-;>>,,')!~{{]^/(__:::<::__(/^^]{~!'',,>>;-=[}%|1n34",
".+5#$%&*=-;>>,,')!~{{]^/(__:::<::__(/^^]{~!'',,>>;-=[}%|1n34",
".+5#$%&*=-;>>,,')!~{{]^/(__:::<::__(/^^]{~!'',,>>;-=[}%|1n34",
".+5#$%&*=-;>>,,')!~{{]^/(__:::<::__(/^^]{~!'',,>>;-=[}%|1n34",
".+5#$%&*=-;>>,,')!~{{]^/(__:::<::__(/^^]{~!'',,>>;-=[}%|1n34",
".+5#$%&*=-;>>,,')!~{{]^/(__:::<::__(/^^]{~!'',,>>;-=[}%|1n34",
".+5#$%&*=-;>>,,')!~{{]^/(__:::<::__(/^^]{~!'',,>>;-=[}%|1n34",
".+5#$%&*=-;>>,,')!~{{]^/(__:::<::__(/^^]{~!'',,>>;-=[}%|1n34",
".+5#$%&*=-;>>,,')!~{{]^/(__:::<::__(/^^]{~!'',,>>;-=[}%|1n34",
".+oonnppqrstuvvwxyzABCCCDEFFGHIHGJEKLCMMBANyxvvOutrPpQQnon34",
".+@#$%&*=-;>>,,')!~{{]^/(__:::<::__(/^^]{~!'',,>>;-=[}%|1234"};
