/* XPM */
static char * bg_meter_alarm_xpm[] = {
"60 14 13 1",
" 	c None",
".	c #FFFFFF",
"+	c #FFB8CA",
"@	c #FF0000",
"#	c #FF889D",
"$	c #FFF3FF",
"%	c #FF354D",
"&	c #FF4D65",
"*	c #FFF9FF",
"=	c #FF475C",
"-	c #FF475F",
";	c #FFFCFF",
">	c #FF5065",
"........+@@@@@@@@@#.........+@@@@@@@@@#.........+@@@@@@@@@#.",
".......$%@@@@@@@@&.........$%@@@@@@@@&.........$%@@@@@@@@&..",
"......*=@@@@@@@@-*........*=@@@@@@@@-*........*=@@@@@@@@-*..",
".....*=@@@@@@@@=*........*=@@@@@@@@=*........*=@@@@@@@@=*...",
"....*=@@@@@@@@=*........*=@@@@@@@@=*........*=@@@@@@@@=*....",
"...*=@@@@@@@@=*........*=@@@@@@@@=*........*=@@@@@@@@=*.....",
"..*=@@@@@@@@=*........*=@@@@@@@@=*........*=@@@@@@@@=*......",
".$=@@@@@@@@=*........*=@@@@@@@@=*........*=@@@@@@@@=*.......",
"+%@@@@@@@@=*........*=@@@@@@@@=*........*=@@@@@@@@=*........",
"@@@@@@@@@=*........*=@@@@@@@@=*........*=@@@@@@@@=*.........",
"@@@@@@@@=*........*=@@@@@@@@=*........*=@@@@@@@@=*.........#",
"@@@@@@@=*........*-@@@@@@@@=*........*-@@@@@@@@=*........;&@",
"@@@@@@%$.........&@@@@@@@@%$.........&@@@@@@@@%$.........>@@",
"@@@@@@+.........#@@@@@@@@@+.........#@@@@@@@@@+.........#@@@"};
